<svg xmlns="http://www.w3.org/2000/svg" version="1.1" xmlns:xlink="http://www.w3.org/1999/xlink" xmlns:svgjs="http://svgjs.dev/svgjs" width="1440" height="560" preserveAspectRatio="none" viewBox="0 0 1440 560"><g mask="url(&quot;#SvgjsMask1020&quot;)" fill="none"><rect width="1440" height="560" x="0" y="0" fill="rgba(166, 200, 144, 1)"></rect><path d="M1512 560L0 560 L0 346.9Q29.58 304.48, 72 334.05Q108.01 250.06, 192 286.08Q262.47 236.55, 312 307.03Q400.8 275.83, 432 364.63Q452.85 313.48, 504 334.32Q534.31 292.63, 576 322.94Q627.97 302.91, 648 354.89Q678.11 265, 768 295.1Q819.54 274.64, 840 326.18Q896.18 310.37, 912 366.55Q938.04 272.59, 1032 298.62Q1083.15 229.77, 1152 280.93Q1217.38 274.31, 1224 339.7Q1240.62 284.32, 1296 300.94Q1324.66 257.61, 1368 286.27Q1423.02 269.29, 1440 324.32Q1488.83 301.14, 1512 349.97z" fill="rgba(158, 193, 135, 1)"></path><path d="M1464 560L0 560 L0 392.39Q40.85 313.24, 120 354.09Q164.96 327.05, 192 372.02Q272.56 332.58, 312 413.14Q386.03 367.17, 432 441.21Q485.71 374.92, 552 428.64Q570.07 374.71, 624 392.78Q646.45 343.23, 696 365.68Q724.47 322.15, 768 350.62Q819.88 330.5, 840 382.39Q908.59 330.98, 960 399.56Q1040.78 360.34, 1080 441.11Q1096.94 338.06, 1200 355Q1265.84 300.84, 1320 366.67Q1384.7 359.37, 1392 424.07Q1434.12 394.19, 1464 436.31z" fill="rgba(168, 196, 150, 1)"></path><path d="M1488 560L0 560 L0 508.47Q28.99 417.46, 120 446.45Q146.59 401.04, 192 427.63Q279.4 395.03, 312 482.43Q366.08 416.51, 432 470.6Q444.97 411.57, 504 424.54Q580.77 381.31, 624 458.09Q713.01 427.1, 744 516.11Q794.15 446.26, 864 496.42Q867.57 427.99, 936 431.56Q1016.47 392.03, 1056 472.5Q1100.78 397.28, 1176 442.07Q1242.62 388.69, 1296 455.3Q1371.04 410.34, 1416 485.38Q1420.06 417.44, 1488 421.49z" fill="rgba(202, 224, 188, 1)"></path><path d="M1536 560L0 560 L0 527.87Q49.13 457, 120 506.12Q182.55 496.67, 192 559.23Q208.12 503.35, 264 519.47Q314.8 450.27, 384 501.07Q472.02 469.09, 504 557.11Q547.31 528.42, 576 571.73Q618.78 542.51, 648 585.3Q664.11 481.4, 768 497.51Q841.02 450.53, 888 523.55Q965.96 481.51, 1008 559.47Q1020.82 500.29, 1080 513.11Q1125.94 487.05, 1152 532.99Q1206.23 515.22, 1224 569.45Q1275.81 501.26, 1344 553.07Q1367.1 504.16, 1416 527.26Q1462.49 453.75, 1536 500.25z" fill="rgba(224, 241, 213, 1)"></path></g><defs><mask id="SvgjsMask1020"><rect width="1440" height="560" fill="#ffffff"></rect></mask></defs></svg>